<svg width="200" viewBox="0 0 828 257" fill="none" xmlns="http://www.w3.org/2000/svg">
<path d="M72.0384 118.564C70.6822 116.274 72.333 113.378 74.9947 113.378H128.002C129.231 113.378 130.367 114.035 130.98 115.1L177.089 195.243C177.707 196.316 177.699 197.638 177.069 198.704L151.267 242.369C149.938 244.618 146.684 244.62 145.353 242.372L72.0384 118.564Z" fill="#143D8F"/>
<path d="M0.484685 118.564C-0.87152 116.274 0.779259 113.378 3.44094 113.378L54.971 113.95C56.2003 113.95 60.084 115.748 60.6971 116.813L105.934 194.689C106.551 195.762 106.563 198.777 105.934 199.842L78.4481 245.652C77.119 247.901 75.1984 247.9 73.8672 245.652L0.484685 118.564Z" fill="#137DC7"/>
<circle cx="182.097" cy="135.71" r="25.7676" fill="#143D8F"/>
<g filter="url(#filter0_d_16_2)">
<path d="M309.62 200.518C309.62 210.499 307.662 219.09 303.745 226.291C299.829 233.493 294.27 239.051 287.069 242.968C279.994 246.884 271.592 248.843 261.864 248.843C252.263 248.843 243.861 246.948 236.66 243.157C229.585 239.241 224.026 233.682 219.983 226.481C216.067 219.153 214.109 210.499 214.109 200.518C214.109 190.664 216.13 182.199 220.173 175.124C224.216 167.923 229.774 162.364 236.849 158.448C244.051 154.531 252.452 152.573 262.054 152.573C271.529 152.573 279.804 154.531 286.879 158.448C294.081 162.364 299.639 167.923 303.556 175.124C307.599 182.326 309.62 190.79 309.62 200.518ZM261.864 173.987C255.8 173.987 250.999 176.325 247.462 180.999C243.924 185.674 242.156 192.18 242.156 200.518C242.156 209.236 243.861 215.932 247.272 220.606C250.81 225.154 255.674 227.428 261.864 227.428C268.181 227.428 273.045 225.091 276.456 220.417C279.994 215.742 281.763 209.109 281.763 200.518C281.763 192.306 279.994 185.863 276.456 181.189C272.919 176.388 268.055 173.987 261.864 173.987ZM354.945 179.104V203.171H327.656V176.072C327.656 172.534 328.477 169.565 330.119 167.165C331.888 164.765 334.225 162.617 337.131 160.722C341.3 158.195 346.291 156.237 352.102 154.847C357.914 153.331 364.104 152.573 370.674 152.573C383.308 152.573 389.625 156.805 389.625 165.27C389.625 167.165 389.372 168.997 388.867 170.766C388.361 172.408 387.666 173.861 386.782 175.124C385.519 174.872 383.939 174.682 382.044 174.556C380.276 174.303 378.317 174.177 376.17 174.177C372.253 174.177 368.4 174.619 364.61 175.503C360.82 176.388 357.598 177.588 354.945 179.104ZM327.656 195.97L354.945 196.539V245.81C353.682 246.063 351.913 246.379 349.639 246.758C347.491 247.137 345.154 247.327 342.627 247.327C337.447 247.327 333.657 246.442 331.257 244.673C328.856 242.778 327.656 239.43 327.656 234.63V195.97ZM443.505 209.425L423.986 196.918L466.815 153.71C472.374 153.836 476.795 155.1 480.08 157.5C483.491 159.901 485.197 162.996 485.197 166.786C485.197 170.071 484.06 172.977 481.786 175.503C479.638 177.904 476.29 180.999 471.742 184.789L443.505 209.425ZM424.934 200.897L446.538 191.043L488.798 231.787C488.419 236.714 486.966 240.567 484.439 243.347C482.039 246.126 478.564 247.516 474.016 247.516C470.605 247.516 467.51 246.695 464.73 245.052C462.077 243.284 459.171 240.504 456.013 236.714L424.934 200.897ZM404.467 195.781L431.756 196.349V245.81C430.493 246.063 428.724 246.379 426.45 246.758C424.302 247.137 421.965 247.327 419.438 247.327C414.258 247.327 410.468 246.442 408.068 244.673C405.667 242.778 404.467 239.43 404.467 234.63V195.781ZM431.756 210.562L404.467 209.804V122.631C405.604 122.252 407.246 121.936 409.394 121.683C411.668 121.304 414.132 121.115 416.785 121.115C421.965 121.115 425.755 121.999 428.155 123.768C430.556 125.537 431.756 128.885 431.756 133.812V210.562ZM507.209 130.78C507.209 128.127 508.157 125.916 510.052 124.147C511.947 122.252 514.284 121.304 517.064 121.304C519.97 121.304 522.307 122.252 524.076 124.147C525.844 125.916 526.729 128.127 526.729 130.78C526.729 133.433 525.844 135.707 524.076 137.602C522.307 139.371 519.97 140.255 517.064 140.255C514.284 140.255 511.947 139.371 510.052 137.602C508.157 135.707 507.209 133.433 507.209 130.78ZM509.483 195.97H524.644V245.621C524.012 245.874 523.065 246.126 521.801 246.379C520.538 246.758 519.148 246.948 517.632 246.948C514.979 246.948 512.958 246.442 511.568 245.431C510.178 244.294 509.483 242.526 509.483 240.125V195.97ZM524.644 203.361H509.483V158.827C510.115 158.574 511.063 158.321 512.326 158.069C513.716 157.69 515.169 157.5 516.685 157.5C519.338 157.5 521.296 158.069 522.559 159.206C523.949 160.216 524.644 161.985 524.644 164.512V203.361ZM566.944 175.693V163.375H607.12C607.499 163.88 607.878 164.701 608.257 165.839C608.636 166.849 608.825 168.049 608.825 169.439C608.825 171.461 608.32 173.04 607.309 174.177C606.298 175.188 604.846 175.693 602.95 175.693H566.944ZM569.597 151.436V173.608H554.626V150.678C554.626 143.224 555.953 137.223 558.606 132.675C561.385 128 565.302 124.589 570.355 122.441C575.535 120.167 581.662 119.03 588.737 119.03C595.939 119.03 601.561 119.978 605.604 121.873C609.773 123.768 611.857 126.105 611.857 128.885C611.857 130.274 611.541 131.538 610.91 132.675C610.404 133.812 609.646 134.886 608.636 135.896C606.362 134.633 603.519 133.622 600.108 132.864C596.697 131.98 593.412 131.538 590.253 131.538C582.547 131.538 577.177 133.117 574.145 136.275C571.113 139.434 569.597 144.487 569.597 151.436ZM554.626 165.27H569.787V245.621C569.155 245.874 568.207 246.126 566.944 246.379C565.681 246.758 564.291 246.948 562.775 246.948C560.122 246.948 558.1 246.442 556.711 245.431C555.321 244.294 554.626 242.526 554.626 240.125V165.27ZM632.675 150.946H665.429V245.771C664.054 246.076 661.917 246.458 659.015 246.916C656.114 247.374 653.137 247.603 650.083 247.603C643.822 247.603 639.318 246.458 636.569 244.168C633.973 241.724 632.675 237.754 632.675 232.257V150.946ZM665.429 191.029H632.675V106.969C634.05 106.664 636.187 106.282 639.089 105.824C641.99 105.213 644.891 104.908 647.792 104.908C653.9 104.908 658.328 106.053 661.077 108.344C663.978 110.481 665.429 114.528 665.429 120.483V191.029ZM730.487 133.539L730.029 106.969H798.513C799.429 108.344 800.193 110.176 800.804 112.466C801.567 114.757 801.949 117.2 801.949 119.796C801.949 124.377 800.88 127.812 798.742 130.103C796.757 132.393 793.932 133.539 790.268 133.539H730.487ZM758.43 106.969L758.888 133.539H690.175C689.411 132.164 688.648 130.332 687.884 128.042C687.121 125.751 686.739 123.308 686.739 120.712C686.739 115.978 687.808 112.543 689.946 110.405C692.083 108.115 694.908 106.969 698.42 106.969H758.43ZM727.738 127.354H760.492V245.771C759.117 246.076 756.98 246.458 754.078 246.916C751.177 247.374 748.276 247.603 745.375 247.603C738.961 247.603 734.38 246.458 731.632 244.168C729.036 241.724 727.738 237.754 727.738 232.257V127.354Z" fill="#333333"/>
</g>
<defs>
<filter id="filter0_d_16_2" x="210.109" y="104.908" width="595.84" height="151.935" filterUnits="userSpaceOnUse" color-interpolation-filters="sRGB">
<feFlood flood-opacity="0" result="BackgroundImageFix"/>
<feColorMatrix in="SourceAlpha" type="matrix" values="0 0 0 0 0 0 0 0 0 0 0 0 0 0 0 0 0 0 127 0" result="hardAlpha"/>
<feOffset dy="4"/>
<feGaussianBlur stdDeviation="2"/>
<feComposite in2="hardAlpha" operator="out"/>
<feColorMatrix type="matrix" values="0 0 0 0 0 0 0 0 0 0 0 0 0 0 0 0 0 0 0.25 0"/>
<feBlend mode="normal" in2="BackgroundImageFix" result="effect1_dropShadow_16_2"/>
<feBlend mode="normal" in="SourceGraphic" in2="effect1_dropShadow_16_2" result="shape"/>
</filter>
</defs>
</svg>
